<svg width="100" height="95" viewBox="0 0 100 95" fill="none" xmlns="http://www.w3.org/2000/svg">
<g clip-path="url(#clip0_45_35)">
<path d="M18.8505 71.8182V82H16.9911L12.5614 75.5916H12.4869V82H10.3342V71.8182H12.2234L16.6183 78.2216H16.7077V71.8182H18.8505ZM24.0396 82.1491C23.2673 82.1491 22.5995 81.9851 22.036 81.657C21.4759 81.3255 21.0434 80.8648 20.7385 80.2749C20.4335 79.6816 20.2811 78.9938 20.2811 78.2116C20.2811 77.4228 20.4335 76.7334 20.7385 76.1435C21.0434 75.5502 21.4759 75.0895 22.036 74.7614C22.5995 74.4299 23.2673 74.2642 24.0396 74.2642C24.8118 74.2642 25.478 74.4299 26.0382 74.7614C26.6016 75.0895 27.0358 75.5502 27.3407 76.1435C27.6457 76.7334 27.7981 77.4228 27.7981 78.2116C27.7981 78.9938 27.6457 79.6816 27.3407 80.2749C27.0358 80.8648 26.6016 81.3255 26.0382 81.657C25.478 81.9851 24.8118 82.1491 24.0396 82.1491ZM24.0495 80.5085C24.4009 80.5085 24.6942 80.4091 24.9295 80.2102C25.1648 80.008 25.3422 79.733 25.4615 79.3849C25.5841 79.0369 25.6454 78.6409 25.6454 78.1967C25.6454 77.7526 25.5841 77.3565 25.4615 77.0085C25.3422 76.6605 25.1648 76.3854 24.9295 76.1832C24.6942 75.9811 24.4009 75.88 24.0495 75.88C23.6949 75.88 23.3966 75.9811 23.1547 76.1832C22.916 76.3854 22.7354 76.6605 22.6127 77.0085C22.4934 77.3565 22.4338 77.7526 22.4338 78.1967C22.4338 78.6409 22.4934 79.0369 22.6127 79.3849C22.7354 79.733 22.916 80.008 23.1547 80.2102C23.3966 80.4091 23.6949 80.5085 24.0495 80.5085ZM33.237 74.3636V75.9545H28.6383V74.3636H33.237ZM29.6824 72.5341H31.8002V79.6534C31.8002 79.849 31.8301 80.0014 31.8897 80.1108C31.9494 80.2169 32.0323 80.2914 32.1383 80.3345C32.2477 80.3776 32.3736 80.3991 32.5162 80.3991C32.6156 80.3991 32.715 80.3909 32.8145 80.3743C32.9139 80.3544 32.9901 80.3395 33.0431 80.3295L33.3762 81.9055C33.2702 81.9387 33.121 81.9768 32.9288 82.0199C32.7366 82.0663 32.5029 82.0945 32.2278 82.1044C31.7174 82.1243 31.2699 82.0563 30.8855 81.9006C30.5043 81.7448 30.2077 81.5028 29.9956 81.1747C29.7834 80.8466 29.679 80.4323 29.6824 79.9318V72.5341ZM34.6167 82V74.3636H36.7346V82H34.6167ZM35.6806 73.3793C35.3657 73.3793 35.0956 73.2749 34.8702 73.0661C34.6481 72.8539 34.5371 72.6004 34.5371 72.3054C34.5371 72.0137 34.6481 71.7635 34.8702 71.5547C35.0956 71.3426 35.3657 71.2365 35.6806 71.2365C35.9954 71.2365 36.2639 71.3426 36.486 71.5547C36.7114 71.7635 36.824 72.0137 36.824 72.3054C36.824 72.6004 36.7114 72.8539 36.486 73.0661C36.2639 73.2749 35.9954 73.3793 35.6806 73.3793ZM42.5376 74.3636V75.9545H37.8246V74.3636H42.5376ZM38.9034 82V73.8118C38.9034 73.2583 39.0111 72.7992 39.2266 72.4347C39.4453 72.0701 39.7436 71.7966 40.1214 71.6143C40.4993 71.4321 40.9285 71.3409 41.4091 71.3409C41.7339 71.3409 42.0305 71.3658 42.299 71.4155C42.5708 71.4652 42.773 71.5099 42.9055 71.5497L42.5277 73.1406C42.4448 73.1141 42.3421 73.0893 42.2195 73.0661C42.1001 73.0429 41.9775 73.0312 41.8516 73.0312C41.54 73.0312 41.3229 73.1042 41.2003 73.25C41.0777 73.3925 41.0163 73.593 41.0163 73.8516V82H38.9034ZM43.8315 82V74.3636H45.9494V82H43.8315ZM44.8954 73.3793C44.5806 73.3793 44.3104 73.2749 44.085 73.0661C43.863 72.8539 43.752 72.6004 43.752 72.3054C43.752 72.0137 43.863 71.7635 44.085 71.5547C44.3104 71.3426 44.5806 71.2365 44.8954 71.2365C45.2103 71.2365 45.4788 71.3426 45.7008 71.5547C45.9262 71.7635 46.0389 72.0137 46.0389 72.3054C46.0389 72.6004 45.9262 72.8539 45.7008 73.0661C45.4788 73.2749 45.2103 73.3793 44.8954 73.3793ZM51.0962 82.1491C50.314 82.1491 49.6412 81.9834 49.0778 81.652C48.5176 81.3172 48.0868 80.8532 47.7852 80.2599C47.4869 79.6667 47.3377 78.9839 47.3377 78.2116C47.3377 77.4295 47.4885 76.7434 47.7901 76.1534C48.0951 75.5601 48.5276 75.0978 49.0877 74.7663C49.6478 74.4316 50.314 74.2642 51.0863 74.2642C51.7525 74.2642 52.3358 74.3852 52.8363 74.6271C53.3368 74.8691 53.7328 75.2088 54.0245 75.6463C54.3162 76.0838 54.4769 76.5975 54.5067 77.1875H52.5082C52.4518 76.8063 52.3027 76.4998 52.0607 76.2678C51.8221 76.0324 51.5089 75.9148 51.1211 75.9148C50.793 75.9148 50.5063 76.0043 50.261 76.1832C50.0191 76.3589 49.8301 76.6158 49.6942 76.9538C49.5584 77.2919 49.4904 77.7012 49.4904 78.1818C49.4904 78.669 49.5567 79.0833 49.6893 79.4247C49.8252 79.7661 50.0157 80.0263 50.261 80.2053C50.5063 80.3842 50.793 80.4737 51.1211 80.4737C51.363 80.4737 51.5801 80.424 51.7724 80.3246C51.9679 80.2251 52.1287 80.081 52.2546 79.892C52.3839 79.6998 52.4684 79.4695 52.5082 79.201H54.5067C54.4736 79.7843 54.3145 80.2981 54.0295 80.7422C53.7478 81.183 53.3583 81.5277 52.8612 81.7763C52.364 82.0249 51.7757 82.1491 51.0962 82.1491ZM58.0403 82.1442C57.5531 82.1442 57.1189 82.0597 56.7377 81.8906C56.3566 81.7183 56.055 81.4647 55.8329 81.13C55.6142 80.7919 55.5048 80.371 55.5048 79.8672C55.5048 79.4429 55.5827 79.0866 55.7385 78.7983C55.8942 78.5099 56.1064 78.2779 56.3748 78.1023C56.6433 77.9266 56.9482 77.794 57.2896 77.7045C57.6343 77.6151 57.9956 77.5521 58.3734 77.5156C58.8175 77.4692 59.1755 77.4261 59.4473 77.3864C59.719 77.3433 59.9163 77.2803 60.0389 77.1974C60.1615 77.1146 60.2228 76.992 60.2228 76.8295V76.7997C60.2228 76.4848 60.1234 76.2412 59.9245 76.0689C59.729 75.8965 59.4506 75.8104 59.0893 75.8104C58.7082 75.8104 58.4049 75.8949 58.1795 76.0639C57.9541 76.2296 57.805 76.4384 57.7321 76.6903L55.7733 76.5312C55.8727 76.0672 56.0682 75.6662 56.3599 75.3281C56.6516 74.9867 57.0278 74.7249 57.4885 74.5426C57.9525 74.357 58.4894 74.2642 59.0993 74.2642C59.5235 74.2642 59.9295 74.3139 60.3173 74.4134C60.7084 74.5128 61.0547 74.6669 61.3564 74.8757C61.6613 75.0845 61.9016 75.353 62.0772 75.6811C62.2529 76.0059 62.3407 76.3954 62.3407 76.8494V82H60.3322V80.9411H60.2725C60.1499 81.1797 59.9859 81.3902 59.7804 81.5724C59.5749 81.7514 59.3279 81.8923 59.0396 81.995C58.7512 82.0945 58.4181 82.1442 58.0403 82.1442ZM58.6468 80.6825C58.9584 80.6825 59.2335 80.6212 59.4721 80.4986C59.7108 80.3726 59.898 80.2036 60.0339 79.9915C60.1698 79.7794 60.2377 79.5391 60.2377 79.2706V78.4602C60.1715 78.5033 60.0803 78.5431 59.9643 78.5795C59.8516 78.6127 59.724 78.6442 59.5815 78.674C59.439 78.7005 59.2965 78.7254 59.1539 78.7486C59.0114 78.7685 58.8822 78.7867 58.7662 78.8033C58.5176 78.8397 58.3005 78.8977 58.1149 78.9773C57.9293 79.0568 57.7851 79.1645 57.6824 79.3004C57.5796 79.433 57.5282 79.5987 57.5282 79.7976C57.5282 80.0859 57.6326 80.3063 57.8414 80.4588C58.0536 80.608 58.322 80.6825 58.6468 80.6825ZM68.0456 74.3636V75.9545H63.4469V74.3636H68.0456ZM64.4909 72.5341H66.6088V79.6534C66.6088 79.849 66.6387 80.0014 66.6983 80.1108C66.758 80.2169 66.8408 80.2914 66.9469 80.3345C67.0563 80.3776 67.1822 80.3991 67.3248 80.3991C67.4242 80.3991 67.5236 80.3909 67.623 80.3743C67.7225 80.3544 67.7987 80.3395 67.8517 80.3295L68.1848 81.9055C68.0788 81.9387 67.9296 81.9768 67.7374 82.0199C67.5452 82.0663 67.3115 82.0945 67.0364 82.1044C66.526 82.1243 66.0785 82.0563 65.6941 81.9006C65.3129 81.7448 65.0163 81.5028 64.8042 81.1747C64.592 80.8466 64.4876 80.4323 64.4909 79.9318V72.5341ZM69.4252 82V74.3636H71.5431V82H69.4252ZM70.4892 73.3793C70.1743 73.3793 69.9042 73.2749 69.6788 73.0661C69.4567 72.8539 69.3457 72.6004 69.3457 72.3054C69.3457 72.0137 69.4567 71.7635 69.6788 71.5547C69.9042 71.3426 70.1743 71.2365 70.4892 71.2365C70.804 71.2365 71.0725 71.3426 71.2946 71.5547C71.5199 71.7635 71.6326 72.0137 71.6326 72.3054C71.6326 72.6004 71.5199 72.8539 71.2946 73.0661C71.0725 73.2749 70.804 73.3793 70.4892 73.3793ZM76.69 82.1491C75.9177 82.1491 75.2499 81.9851 74.6864 81.657C74.1263 81.3255 73.6938 80.8648 73.3888 80.2749C73.0839 79.6816 72.9315 78.9938 72.9315 78.2116C72.9315 77.4228 73.0839 76.7334 73.3888 76.1435C73.6938 75.5502 74.1263 75.0895 74.6864 74.7614C75.2499 74.4299 75.9177 74.2642 76.69 74.2642C77.4622 74.2642 78.1284 74.4299 78.6886 74.7614C79.252 75.0895 79.6862 75.5502 79.9911 76.1435C80.296 76.7334 80.4485 77.4228 80.4485 78.2116C80.4485 78.9938 80.296 79.6816 79.9911 80.2749C79.6862 80.8648 79.252 81.3255 78.6886 81.657C78.1284 81.9851 77.4622 82.1491 76.69 82.1491ZM76.6999 80.5085C77.0513 80.5085 77.3446 80.4091 77.5799 80.2102C77.8152 80.008 77.9925 79.733 78.1119 79.3849C78.2345 79.0369 78.2958 78.6409 78.2958 78.1967C78.2958 77.7526 78.2345 77.3565 78.1119 77.0085C77.9925 76.6605 77.8152 76.3854 77.5799 76.1832C77.3446 75.9811 77.0513 75.88 76.6999 75.88C76.3453 75.88 76.047 75.9811 75.805 76.1832C75.5664 76.3854 75.3858 76.6605 75.2631 77.0085C75.1438 77.3565 75.0842 77.7526 75.0842 78.1967C75.0842 78.6409 75.1438 79.0369 75.2631 79.3849C75.3858 79.733 75.5664 80.008 75.805 80.2102C76.047 80.4091 76.3453 80.5085 76.6999 80.5085ZM83.9435 77.5852V82H81.8256V74.3636H83.8441V75.7109H83.9336C84.1026 75.2668 84.386 74.9155 84.7837 74.657C85.1815 74.3951 85.6637 74.2642 86.2305 74.2642C86.7608 74.2642 87.2231 74.3802 87.6175 74.6122C88.012 74.8442 88.3185 75.1757 88.5373 75.6065C88.756 76.0341 88.8654 76.5445 88.8654 77.1378V82H86.7475V77.5156C86.7508 77.0483 86.6315 76.6837 86.3896 76.4219C86.1476 76.1567 85.8145 76.0241 85.3903 76.0241C85.1052 76.0241 84.8533 76.0855 84.6346 76.2081C84.4192 76.3307 84.2501 76.5097 84.1275 76.745C84.0082 76.977 83.9469 77.2571 83.9435 77.5852ZM96.8883 76.5412L94.9494 76.6605C94.9163 76.4948 94.845 76.3456 94.7356 76.2131C94.6262 76.0772 94.4821 75.9695 94.3031 75.8899C94.1274 75.8071 93.917 75.7656 93.6717 75.7656C93.3436 75.7656 93.0668 75.8352 92.8414 75.9744C92.6161 76.1103 92.5034 76.2926 92.5034 76.5213C92.5034 76.7036 92.5763 76.8577 92.7221 76.9837C92.868 77.1096 93.1182 77.2107 93.4728 77.2869L94.8549 77.5653C95.5974 77.7178 96.1509 77.9631 96.5154 78.3011C96.88 78.6392 97.0623 79.0833 97.0623 79.6335C97.0623 80.134 96.9148 80.5732 96.6199 80.951C96.3282 81.3288 95.9271 81.6238 95.4167 81.8359C94.9096 82.0447 94.3246 82.1491 93.6618 82.1491C92.6509 82.1491 91.8455 81.9387 91.2456 81.5178C90.649 81.0935 90.2993 80.5168 90.1966 79.7876L92.2797 79.6783C92.3426 79.9865 92.4951 80.2218 92.737 80.3842C92.979 80.5433 93.2889 80.6229 93.6667 80.6229C94.0379 80.6229 94.3362 80.5516 94.5616 80.4091C94.7903 80.2633 94.9063 80.076 94.9096 79.8473C94.9063 79.6551 94.8251 79.4976 94.666 79.375C94.5069 79.2491 94.2617 79.1529 93.9302 79.0866L92.6078 78.8232C91.862 78.674 91.3069 78.4155 90.9423 78.0476C90.581 77.6797 90.4004 77.2107 90.4004 76.6406C90.4004 76.1501 90.533 75.7275 90.7981 75.3729C91.0666 75.0182 91.4428 74.7448 91.9267 74.5526C92.4139 74.3603 92.984 74.2642 93.6369 74.2642C94.6014 74.2642 95.3604 74.468 95.9139 74.8757C96.4707 75.2834 96.7955 75.8385 96.8883 76.5412Z" fill="black"/>
<path d="M50 59.7059C53.3 59.7059 56 57.6425 56 55.1207H44C44 57.6425 46.67 59.7059 50 59.7059ZM68 45.9502V34.4872C68 27.4489 63.08 21.5569 54.5 19.9979V18.4389C54.5 16.536 52.49 15 50 15C47.51 15 45.5 16.536 45.5 18.4389V19.9979C36.89 21.5569 32 27.4259 32 34.4872V45.9502L26 50.5354V52.8281H74V50.5354L68 45.9502Z" fill="black"/>
</g>
<defs>
<clipPath id="clip0_45_35">
<rect width="100" height="95" fill="white"/>
</clipPath>
</defs>
</svg>
